<?xml version="1.0" encoding="utf-8" ?><svg xmlns="http://www.w3.org/2000/svg" xmlns:xlink="http://www.w3.org/1999/xlink" width="677" height="369" viewBox="0 0 677 369"><path fill="#07090D" d="M236.267 62.5513C237.499 62.2427 238.899 62.758 240.198 62.8182C252.101 63.37 264.126 63.1694 276.051 63.1724L437.726 63.1495L437.697 305.988C426.705 306.653 410.567 306.125 399.324 306.125L323.447 306.074L267.716 306.107C260.184 306.115 246.195 306.568 239.403 305.917C238.795 286.775 239.289 264.877 239.292 245.552L239.309 131.793L239.306 88.8138C239.302 81.7417 239.606 70.9092 238.934 64.148C238.274 63.354 237.901 63.6778 236.461 63.3442L236.267 62.5513Z"/><path fill="#46ABB8" d="M252.648 78.4786L268.733 78.4868C269.926 86.0536 270.738 94.6857 271.808 102.415L278.573 149.883L280.809 167.65C281.236 171.072 281.693 175.8 282.594 179.047C283.324 168.128 282.078 152.778 281.843 141.523C281.561 120.528 281.397 99.5307 281.351 78.5332C286.281 78.4829 291.211 78.4844 296.141 78.5377C296.772 131.371 295.73 184.389 296.235 237.241C296.249 238.754 296.356 241.837 295.919 243.124L295.264 243.349C290.533 243.377 285.802 243.369 281.072 243.325C280.429 233.371 277.591 217.902 276.059 207.725C272.612 184.908 269.354 162.064 266.285 139.193C265.843 143.273 265.96 148.081 266.124 152.22C267.323 182.619 267.203 212.963 267.214 243.382L252.694 243.384C252.285 223.534 252.622 202.508 252.62 182.587L252.648 78.4786Z"/><path fill="#46ABB8" d="M357.8 77.4762C368.206 76.2099 378.981 79.8263 381.061 91.2848C382.036 96.6562 381.552 103.756 381.553 109.317L381.565 141.482L365.974 141.408C365.983 126.661 365.982 111.911 366.036 97.1674C366.045 94.7899 365.812 92.4848 363.329 91.6241C359.437 90.2753 356.849 92.5225 356.877 96.4525C356.963 111.259 356.503 126.099 356.946 140.898C357.123 146.78 360.271 150.263 364.445 153.934C370.587 159.335 379.893 166.416 380.862 175.208C382.457 189.681 381.135 204.691 381.566 219.226C381.934 231.619 380.839 241.849 366.298 244.355C339.534 246.905 341.033 230.1 341.057 210.391L341.023 180.662L356.85 180.608L356.775 208.816C356.769 214.042 356.84 218.919 356.859 224.537C356.877 229.833 360.521 232.317 365.13 228.835C365.65 228.443 365.948 226.269 365.966 225.523C366.146 217.74 365.982 209.92 366.022 202.133C365.913 195.289 366.176 188.304 365.827 181.478C365.296 176.538 362.054 173.043 358.517 169.894C350.615 162.858 342.885 157.863 341.656 146.347C340.578 136.243 341.183 125.852 341.044 115.66C340.946 108.553 340.919 101.167 341.338 94.0765C342.495 84.0893 348.181 78.8162 357.8 77.4762Z"/><path fill="#46ABB8" d="M304.073 78.4794C314.117 78.1564 325.78 78.4549 335.956 78.4542L335.926 92.9297L319.804 92.8598C319.246 112.367 319.666 133.853 319.704 153.469C324.437 153.425 329.17 153.409 333.902 153.42C333.778 158.118 333.824 163.003 333.814 167.717L319.72 167.625L319.654 205.88C319.646 212.96 319.405 222.193 319.79 229.153C325.273 229.076 330.758 229.068 336.242 229.13C336.164 233.901 336.193 238.673 336.33 243.443C325.582 243.325 314.836 243.498 304.103 243.344L304.073 78.4794Z"/><path fill="#46ABB8" d="M386.404 78.511C398.667 78.2889 412.14 78.3554 424.403 78.5178L424.374 92.9874L413.102 92.9255L413.137 232.278L413.148 243.364C408.072 243.439 402.815 243.351 397.725 243.33C397.146 193.552 397.666 142.815 397.664 92.9405C393.969 92.8579 390.11 92.9318 386.402 92.9486C386.352 88.1647 386.401 83.3019 386.404 78.511Z"/><path fill="#46ABB8" d="M398.742 252.563L404.08 252.605C404.456 257.854 404.212 265.647 404.136 270.998L407.92 270.995C407.878 264.868 407.87 258.741 407.898 252.615L413.273 252.624L413.359 295.611L407.955 295.616C407.842 292.425 408.333 278.362 407.551 276.547C406.541 276.154 405.209 275.865 404.361 276.641C403.844 281.599 404.265 290.039 404.129 295.605L398.842 295.553C398.452 281.505 398.69 266.651 398.742 252.563Z"/><path fill="#46ABB8" d="M390.651 252.516L396.453 252.613C395.14 257.425 391.255 269.333 391.383 273.574C391.494 277.235 394.827 288.532 395.934 292.637L396.741 295.549L390.751 295.539C389.581 289.015 387.433 282.822 386.088 276.169C385.912 282.461 386.033 289.289 386.023 295.622L380.517 295.629C380.201 281.74 380.482 266.507 380.503 252.561L386.027 252.606C386.016 257.947 385.815 266.619 386.346 271.683C387.058 264.426 389.765 258.944 390.651 252.516Z"/></svg>
